<svg width="240" height="240" viewBox="0 0 240 240" fill="none" xmlns="http://www.w3.org/2000/svg">
    <path d="M214.238 69.74S175.646 14.18 127.464 8.3C84.931 3.076 45.451 23.42 39.955 67.367c-1.958 15.672-5.443 32.986-11.635 47.27C21.374 130.661 9.523 144 18.6 174.802c9.077 30.801 47.41 58.617 75.274 58.56 27.864-.058 54.038-25.388 75.633-48.423s90.365-44.697 44.731-115.2z" fill="#64C495"/>
    <path opacity=".7" d="M214.238 69.74S175.646 14.18 127.464 8.3C84.931 3.076 45.451 23.42 39.955 67.367c-1.958 15.672-5.443 32.986-11.635 47.27C21.374 130.661 9.523 144 18.6 174.802c9.077 30.801 47.41 58.617 75.274 58.56 27.864-.058 54.038-25.388 75.633-48.423s90.365-44.697 44.731-115.2z" fill="#fff"/>
    <g opacity=".3" stroke="#313A55" stroke-linecap="round" stroke-linejoin="round">
        <path d="M59.462 85.262H23.43l.365-6.955h36.033l-.365 6.955zM59.462 95.002H23.43l.365-6.956h36.033l-.365 6.956zM59.462 104.741H23.43l.365-6.955h36.033l-.365 6.955zM59.462 114.48H23.43l.365-6.955h36.033l-.365 6.955zM59.462 124.224H23.43l.365-6.96h36.033l-.365 6.96zM59.462 133.963H23.43l.365-6.96h36.033l-.365 6.96zM59.462 143.702H23.43l.365-6.96h36.033l-.365 6.96zM59.462 153.442H23.43l.365-6.96h36.033l-.365 6.96zM59.462 163.181H23.43l.365-6.96h36.033l-.365 6.96zM59.462 172.92H23.43l.365-6.96h36.033l-.365 6.96zM59.462 182.659H23.43l.365-6.955h36.033l-.365 6.955zM97.565 85.262H61.53l.365-6.955H97.93l-.365 6.955zM97.565 95.002H61.53l.365-6.956H97.93l-.365 6.956zM97.565 104.741H61.53l.365-6.955H97.93l-.365 6.955zM97.565 114.48H61.53l.365-6.955H97.93l-.365 6.955zM97.565 124.224H61.53l.365-6.96H97.93l-.365 6.96zM97.565 133.963H61.53l.365-6.96H97.93l-.365 6.96zM97.565 143.702H61.53l.365-6.96H97.93l-.365 6.96zM97.565 153.442H61.53l.365-6.96H97.93l-.365 6.96zM97.565 163.181H61.53l.365-6.96H97.93l-.365 6.96zM97.565 172.92H61.53l.365-6.96H97.93l-.365 6.96zM97.565 182.659H61.53l.365-6.955H97.93l-.365 6.955z"/>
    </g>
    <g opacity=".3" stroke="#313A55" stroke-linecap="round" stroke-linejoin="round">
        <path d="M208.363 92.462h-46.512v35.189h46.512V92.462z"/>
        <path d="M205.834 95.371h-41.463v29.376h41.463V95.371zM177.893 99.998h14.424M168.552 104.261h33.106M175.93 112.781h18.35M168.878 121.306h7.215M194.117 121.306h7.209"/>
    </g>
    <g opacity=".3" stroke="#313A55" stroke-linecap="round" stroke-linejoin="round">
        <path d="M220.992 135.072h-34.234v25.901h34.234v-25.901z"/>
        <path d="M219.134 137.213h-30.518v21.624h30.518v-21.624zM198.571 140.621h10.613M191.693 143.755h24.369M197.122 150.029h13.512M191.933 156.302h5.309M210.509 156.302h5.309"/>
    </g>
    <path d="m181.334 153.293-49.694-1.728a88.639 88.639 0 0 0-6.144 0L79.2 153.293l2.054-65.002c.077-2.46.077-4.925 0-7.392L79.2 19.565h102.134v133.728z" fill="#313A55" stroke="#313A55" stroke-linecap="round" stroke-linejoin="round"/>
    <path d="M182.976 17.27H80.842v133.728h102.134V17.27z" fill="#fff" stroke="#313A55" stroke-linecap="round" stroke-linejoin="round"/>
    <path d="M176.184 53.717H87.629v89.645h88.555V53.717z" fill="#fff" stroke="#313A55" stroke-linecap="round" stroke-linejoin="round"/>
    <path d="M88.46 40.32V23.928h4.8a4.646 4.646 0 0 1 2.4.547 3.254 3.254 0 0 1 1.358 1.589c.308.803.454 1.66.431 2.52a5.28 5.28 0 0 1-.547 2.578 3.25 3.25 0 0 1-1.526 1.44 5.55 5.55 0 0 1-2.319.446H91.44v7.272h-2.98zm2.994-9.389h1.133c.435.02.868-.06 1.267-.235a1.22 1.22 0 0 0 .624-.749c.13-.45.188-.918.173-1.387a6.573 6.573 0 0 0-.13-1.44 1.255 1.255 0 0 0-.566-.82 2.76 2.76 0 0 0-1.368-.265h-1.133v4.896z" fill="#64C495"/>
    <path d="m92.102 48.226 3.298-8.698-3.197-7.68h2.794l2.121 5.078 1.863-5.078h2.592L98.4 40.094l3.398 8.132h-2.774l-2.328-5.506-2.026 5.5-2.568.006z" fill="#64C495"/>
    <path d="M138.034 28.982h37.857M138.034 37.152h37.857M146.208 33.614h29.683M146.208 40.968h29.683M90.643 63.571h29.688M90.643 71.323h29.688M90.643 67.58h44.943M90.643 80.77h29.688M90.643 88.522h29.688M90.643 84.778h44.943M90.01 138.528h28.142M143.376 138.528h28.142" stroke="#313A55" stroke-linecap="round" stroke-linejoin="round"/>
    <path d="M93.98 107.63a10.085 10.085 0 0 0-4.532 10.24 10.08 10.08 0 1 0 4.531-10.24zm9.671 15.25a7.961 7.961 0 0 1-11.69-3.857 7.964 7.964 0 1 1 11.69 3.857z" fill="#64C495"/>
    <path d="m103.129 112.871-8.583 5.439.876 1.383 8.583-5.439-.876-1.383z" fill="#64C495"/>
    <path d="M94.517 135.36s.139 3.197 4.32-2.506c4.181-5.702 3.619-5.28 2.505-2.083a28.186 28.186 0 0 1-3.36 6.24s5.012-7.929 5.012-5.707c0 2.222-4.733 11.688-3.759 10.853.975-.835 4.037-5.007 4.037-5.007s-.418 2.78.691 1.527 2.367-3.754 2.227-2.362c-.139 1.392-1.948 3.058-.139 1.392 1.81-1.665 3.202-3.758 2.784-2.227-.417 1.531-1.531 2.088-.417 1.531 1.113-.557 7.372-10.992 5.424-9.739-1.949 1.253-5.564 12.101-3.893 11.266 1.67-.836 3.614-5.007 3.475-2.919-.139 2.088.418 2.088.96 1.392M231.883 223.32H12.744M231.883 227.909H12.744" stroke="#313A55" stroke-linecap="round" stroke-linejoin="round"/>
    <path d="M219.878 172.704h-46.464a3.042 3.042 0 0 0-1.996.743 3.044 3.044 0 0 0-1.023 1.868l-6.95 47.52h55.253l4.219-46.819a3.058 3.058 0 0 0-.791-2.324 3.035 3.035 0 0 0-2.248-.988z" fill="#313A55" stroke="#313A55" stroke-linecap="round" stroke-linejoin="round"/>
    <path d="M156.96 164.947s-12.571 6.24-16.886 7.963c-4.316 1.724-5.376 2.496-5.76 3.552-.384 1.056-17.175 27.442-19.09 29.842-1.915 2.4-6.048 7.579-5.472 11.126.576 3.548 5.184 6.624 9.6 6.528 4.416-.096 7.2-.96 7.68-2.208.48-1.248 12.667-23.04 12.667-23.04l3.84 24.274h49.032s3.84-33.197 3.84-38.093c0-4.896.96-10.651-1.056-11.899-2.016-1.248-10.363-4.123-16.507-6.139-6.144-2.016-8.059-2.4-9.494-2.4-1.436 0-12.394.494-12.394.494z" fill="#fff" stroke="#313A55" stroke-linecap="round" stroke-linejoin="round"/>
    <path d="M155.63 165.12s-1.632 3.072-1.728 5.568c-.096 2.496-.48 7.099-1.92 9.883-1.44 2.784-2.496 4.32-1.728 4.027.768-.292 5.18-5.179 5.66-6.24.48-1.06 1.248.96 1.248.96s-1.44 4.124-1.632 4.7c-.192.576 6.043 8.539 6.043 8.539s5.376-4.219 6.624-5.179c1.248-.96.864-1.728.96-2.976.096-1.248.48-3.068 1.147-4.124.667-1.056 2.597 3.082 3.936 5.002s2.688 2.592 2.496 1.152c-.192-1.44-.864-4.224-1.344-9.12-.48-4.896-.384-10.747-1.632-12.571-1.248-1.824-7.795-2.184-12.091-2.491a6.347 6.347 0 0 0-6.039 2.87z" fill="#fff" stroke="#313A55" stroke-linecap="round" stroke-linejoin="round"/>
    <path d="m136.248 181.464 3.456 17.261-4.464-11.477M156.11 169.747s1.344 7.483 2.592 13.239a59.199 59.199 0 0 0 2.88 9.6s6.336-10.652 8.16-16.215a64.135 64.135 0 0 0 2.4-9.403H156.11v2.779z" stroke="#313A55" stroke-linecap="round" stroke-linejoin="round"/>
    <path d="m163.114 172.32-3.452 4.32 2.4 4.608-2.361 5.717a52.311 52.311 0 0 0 1.881 5.601s1.978-3.321 4.037-7.2l-1.733-3.998 2.112-4.8-2.884-4.248z" fill="#64C495" stroke="#313A55" stroke-linecap="round" stroke-linejoin="round"/>
    <path d="M156.11 166.963v2.784s.927 5.165 1.954 10.21l4.858-5.127 5.121 5.674a40.314 40.314 0 0 0 1.695-4.138 64.23 64.23 0 0 0 2.4-9.403H156.11z" fill="#fff" stroke="#313A55" stroke-linecap="round" stroke-linejoin="round"/>
    <path d="M114.278 209.146s8.962-3.274 13.796 4.689" stroke="#313A55" stroke-linecap="round" stroke-linejoin="round"/>
    <path d="M128.232 211.378s-5.006 1.132-7.68 5.4c-2.674 4.267 2.765 4.742 4.267 4.742 1.503 0 2.923-1.008 3.005-1.531.082-.523 2.05-5.583 1.973-6.763a1.92 1.92 0 0 0-1.565-1.848z" fill="#fff" stroke="#313A55" stroke-linecap="round" stroke-linejoin="round"/>
    <path d="M125.928 213.144s-2.77 2.4-2.582 3.36c.187.96 4.296 4.656 5.088 4.123a1.205 1.205 0 0 0 .606-.71 1.205 1.205 0 0 0-.074-.931c-.225-.36-3.038-5.842-3.038-5.842z" fill="#fff" stroke="#313A55" stroke-linecap="round" stroke-linejoin="round"/>
    <path d="M123.36 216.48s-1.627 1.733-1.094 2.525c.532.792 4.252 2.813 5.217 2.203.965-.61.341-1.234.341-1.234l-4.464-3.494zM132.893 213.053l-3.331-.576.782 4.795 3.403.106-.854-4.325z" fill="#fff" stroke="#313A55" stroke-linecap="round" stroke-linejoin="round"/>
    <path d="m126.898 205.512 3.902 13.675 1.896 1.723v-2.433l-4.128-13.44a.86.86 0 0 0-.77-.613.87.87 0 0 0-.9 1.088z" fill="#313A55" stroke="#313A55" stroke-linecap="round" stroke-linejoin="round"/>
    <path d="M128.232 211.378s-2.304 1.348-2.074 2.371c.231 1.022 2.717 5.803 3.615 5.865.897.063 1.44-.48 1.31-1.516-.129-1.037-.96-4.8-1.521-5.621-.562-.821-.624-1.147-1.33-1.099zM132.893 213.053s2.453.307 2.88 1.056c.427.749-1.287 3.734-1.834 4.416-.547.681-1.526.653-1.555-1.075.046-1.478.216-2.948.509-4.397z" fill="#fff" stroke="#313A55" stroke-linecap="round" stroke-linejoin="round"/>
    <path d="M119.626 218.827h26.913a2.845 2.845 0 0 1 2.837 2.837 2.4 2.4 0 0 1-2.4 2.4H120a2.207 2.207 0 0 1-2.208-2.208v-1.2a1.833 1.833 0 0 1 1.132-1.691c.223-.092.461-.138.702-.138z" fill="#fff" stroke="#313A55" stroke-linecap="round" stroke-linejoin="round"/>
    <path d="M167.52 212.64s-7.003-.768-8.731-1.344c-1.728-.576-4.512-1.056-5.472-.288-.96.768-5.659 6.24-5.76 6.907-.101.667-1.056 2.88-.576 3.456.402.401.897.698 1.44.864 0 0 6.24 1.728 6.907 1.824.667.096 7.099-.192 7.099-.192l3.36-1.248 4.699-.096s.096 1.536.192-2.208-3.158-7.675-3.158-7.675z" fill="#fff" stroke="#313A55" stroke-linecap="round" stroke-linejoin="round"/>
    <path d="M148.435 222.24s.096-2.208.576-3.168 5.948-5.851 5.948-5.851M150.24 222.806s.96-2.4 1.344-2.592c.384-.192 4.891-3.072 4.891-3.072M153.518 223.478s.192-.96.672-1.152c.48-.192 4.512-2.016 4.512-2.016M157.838 223.958l1.824-.48-.192-.864-1.92.48" stroke="#313A55" stroke-linecap="round" stroke-linejoin="round"/>
    <path d="M189.499 181.738s-5.083 10.651-4.8 14.4c.283 3.748 1.541 9.974 1.541 9.974s-8.059 3.163-10.843 4.32c-2.784 1.157-7.877 2.208-7.877 2.208l2.587 10.171-.379 1.056h27.917s2.112-.384 2.496-.864c.384-.48.768-.672.96-2.208.192-1.536 1.44-14.966 1.152-18.72-.288-3.753-4.224-23.217-4.704-25.233-.48-2.016-1.339-3.36-2.203-3.84-.864-.48-4.608-.86-4.608-.86" fill="#fff"/>
    <path d="M189.499 181.738s-5.083 10.651-4.8 14.4c.283 3.748 1.541 9.974 1.541 9.974s-8.059 3.163-10.843 4.32c-2.784 1.157-7.877 2.208-7.877 2.208l2.587 10.171-.379 1.056h27.917s2.112-.384 2.496-.864c.384-.48.768-.672.96-2.208.192-1.536 1.44-14.966 1.152-18.72-.288-3.753-4.224-23.217-4.704-25.233-.48-2.016-1.339-3.36-2.203-3.84-.864-.48-4.608-.86-4.608-.86" stroke="#313A55" stroke-linecap="round" stroke-linejoin="round"/>
    <path d="M186.912 206.304s7.387.384 11.04 2.683M188.251 205.344s5.184-.288 7.968.576M186.816 181.44s-2.592 6.048-2.688 8.352c-.096 2.304-.288 3.648-.288 3.648" stroke="#313A55" stroke-linecap="round" stroke-linejoin="round"/>
    <path d="M175.013 165.427s5.851 8.333 1.147 31.57" stroke="#313A55" stroke-width="2" stroke-linecap="round" stroke-linejoin="round"/>
    <path d="M178.944 197.669a2.88 2.88 0 1 0-5.761 0 2.88 2.88 0 0 0 5.761 0z" fill="#fff" stroke="#313A55" stroke-linecap="round" stroke-linejoin="round"/>
    <path d="M155.04 166.291s-2.971 1.92-3.451 9.691M155.717 187.757c-.725 5.241-1.714 10.872-1.92 12.105-.48 2.64-3.614 3.562-5.63 2.698" stroke="#313A55" stroke-width="2" stroke-linecap="round" stroke-linejoin="round"/>
    <path d="M148.2 188.102c-.658-2.937-1.061-5.486-.917-6.652.672-5.372 4.32-5.468 4.32-5.468s4.32.576 4.603 5.184c.03 2.207-.13 4.412-.48 6.591" stroke="#313A55" stroke-width="2" stroke-linecap="round" stroke-linejoin="round"/>
    <path d="M156.302 202.176s-2.016 1.152-3.36.384c-.907-.518-3.36-8.333-4.742-14.458" stroke="#313A55" stroke-width="2" stroke-linecap="round" stroke-linejoin="round"/>
    <path d="m157.005 201.136-.793.342a.752.752 0 0 0-.394.99l.009.022a.755.755 0 0 0 .991.394l.793-.342a.754.754 0 0 0 .394-.991l-.01-.022a.753.753 0 0 0-.99-.393zM148.415 201.656l-.74-.445a.754.754 0 0 0-1.034.258l-.013.021a.754.754 0 0 0 .258 1.034l.741.445a.754.754 0 0 0 1.034-.258l.012-.021a.753.753 0 0 0-.258-1.034z" stroke="#313A55" stroke-linecap="round" stroke-linejoin="round"/>
    <path d="M151.603 143.074s-1.536 3.643-1.248 5.947c.288 2.304 3.36 4.8 3.36 4.8s1.056-10.267 1.056-10.651c0-.384-1.925-1.248-3.168-.096z" fill="#313A55" stroke="#313A55" stroke-linecap="round" stroke-linejoin="round"/>
    <path d="m150.499 156.125 2.04-1.426" stroke="#313A55" stroke-width="2" stroke-linecap="round" stroke-linejoin="round"/>
    <path d="M152.75 143.746s-.384 10.171-.192 12.086c.192 1.915.96 8.059 1.632 9.979.672 1.92 2.88 8.059 4.608 8.731 1.728.672 5.18 1.152 6.332.384 1.152-.768 5.371-3.643 6.523-6.427a18.88 18.88 0 0 0 1.344-5.083 7.076 7.076 0 0 0 3.648-5.088c.576-3.648-.96-4.699-.96-4.699l.096-6.336s-1.056-4.411-3.84-6.811c-2.784-2.4-6.043-2.592-9.403-.768-3.36 1.824-9.788 4.032-9.788 4.032z" fill="#fff" stroke="#313A55" stroke-linecap="round" stroke-linejoin="round"/>
    <path d="M170.789 143.17s.096-2.496-2.299-1.632c-2.396.864-2.976 2.496-6.528 3.936-3.552 1.44-8.252-.192-9.879-1.152-1.627-.96-2.784-2.304-.576-4.8 2.208-2.496 7.387-4.988 12.96-4.988 5.573 0 9.883 4.604 11.707 6.524 1.824 1.92 2.112 4.32 1.44 6.043-.672 1.723-1.92 6.528-1.92 6.528s-.768-.096-1.056 1.051c-.288 1.147-.192 2.4-1.44 2.496-1.248.096-1.152-3.259-1.152-3.259s-3.067-.96-3.451-3.168c-.384-2.208 2.194-5.467 2.194-7.579z" fill="#313A55" stroke="#313A55" stroke-linecap="round" stroke-linejoin="round"/>
    <path d="m159.36 157.69-8.875-1.565.513 3.979a1.166 1.166 0 0 0 .96.998l5.396.85a1.155 1.155 0 0 0 1.32-.922l.686-3.34zM160.978 157.858l10.291-.298-1.008 3.725a1.228 1.228 0 0 1-1.219.825l-6.24.087a1.352 1.352 0 0 1-1.412-1.061l-.412-3.278zM159.375 157.69l1.603.168M171.269 157.56l3.36-2.88M162.346 156.696s2.88-2.203 5.568-.864M158.03 156.216s-2.208-2.4-4.704-.768" stroke="#313A55" stroke-width="2" stroke-linecap="round" stroke-linejoin="round"/>
    <path d="M158.606 164.563s-.48 2.016 0 2.4a4.24 4.24 0 0 0 2.684.48M157.167 168.48s1.92 1.44 3.744 1.536c1.824.096 3.931-1.248 3.931-1.248M164.266 158.712s1.152 1.344 3.072-.096M154.814 158.122s.96 1.488 3.053.321" stroke="#313A55" stroke-linecap="round" stroke-linejoin="round"/>
    <path d="M95.28 143.16s.61 9.144.149 9.907l-1.349 2.285s.61 6.557-.61 7.315a8.026 8.026 0 0 1-3.048.917s-1.219 4.877-1.68 5.486c-.46.61-3.201 2.592-4.113 2.88-.912.288-3.811.48-10.67-3.657-6.86-4.138-9.452-5.487-9.298-7.771.153-2.285.48-4.877.48-4.877s.763-10.978 2.136-14.328c1.373-3.351 18.749-5.184 22.56-4.267 3.811.916 5.443 6.11 5.443 6.11z" fill="#fff" stroke="#313A55" stroke-linecap="round" stroke-linejoin="round"/>
    <path d="m77.597 158.246 1.07.764s-.917 3.657-.48 5.337" stroke="#313A55" stroke-linecap="round" stroke-linejoin="round"/>
    <path d="M92.837 155.184c-.154.701-.523 1.21-.82 1.142-.298-.067-.418-.681-.26-1.382.158-.701.523-1.21.82-1.142.298.067.418.686.26 1.382z" fill="#313A55"/>
    <path d="M91.282 152.386s1.66-1.661 3.048-.092" stroke="#313A55" stroke-linecap="round" stroke-linejoin="round"/>
    <path d="M89.184 141.941s1.978 3.657 1.829 4.421c-.149.763-6.403 2.592-6.403 2.592s-.61 3.657-1.527 4.113l-.912.456a15.967 15.967 0 0 1-1.829-3.201c-1.065-2.285-2.591-2.88-4.267-.61-1.675 2.27-.307 7.622.61 8.078l.912.456s-.763.764-3.658 1.224c-2.894.461-5.03 1.066-7.161.456-2.132-.609-5.184-6.403-6.24-13.872-1.056-7.468 2.285-13.867 6.72-15.84 4.435-1.972 14.481-.153 15.24.303.758.456 5.947-1.978 8.995-.456 3.048 1.521 2.88 3.201 3.657 4.267.778 1.066 4.724-.302 5.031 3.509.307 3.811-1.22 6.096-3.202 6.398-1.982.303-7.795-2.294-7.795-2.294z" fill="#313A55" stroke="#313A55" stroke-linecap="round" stroke-linejoin="round"/>
    <path d="M53.093 165.869s-14.607 7.79-17.39 9.331c-2.785 1.541-3.202 2.923-3.36 4.32-.159 1.397 0 48.408 0 48.408h78.897S99.274 192 98.88 187.987c-.394-4.013-1.248-11.131-2.362-11.966-1.113-.835-16.838-7.791-16.838-7.791s-3.758-4.032-12.658-4.032c-8.899 0-13.93 1.671-13.93 1.671z" fill="#64C495" stroke="#313A55" stroke-linecap="round" stroke-linejoin="round"/>
    <path d="M62.136 194.491c.413.163.83.312 1.248.451M46.56 181.589s5.76 8.035 13.627 12M51.562 190.906s3.196 3.201 9.873 5.011M91.2 179.376c-2.222 2.525-5.352 6.562-6.389 10.277M93.571 176.856s-.441.427-1.132 1.162M85.642 185.203s-2.088 4.032-2.501 6.538" stroke="#313A55" stroke-linecap="round" stroke-linejoin="round"/>
    <path d="M52.258 166.56s8.068-.278 15.72-.139c7.65.139 12.662 2.505 12.662 2.505s-4.594-5.563-6.677-6.816c-2.083-1.252-8.486-3.36-13.771-1.67a15.333 15.333 0 0 0-7.934 6.12z" fill="#64C495" stroke="#313A55" stroke-linecap="round" stroke-linejoin="round"/>
    <path d="M29.314 227.875 21.96 199.68a2.352 2.352 0 0 1 2.304-2.832h58.507a2.358 2.358 0 0 1 2.304 1.853l6.495 29.203" fill="#313A55"/>
    <path d="M29.314 227.875 21.96 199.68a2.352 2.352 0 0 1 2.304-2.832h58.507a2.358 2.358 0 0 1 2.304 1.853l6.495 29.203" stroke="#313A55" stroke-linecap="round" stroke-linejoin="round"/>
</svg>
