<svg width="118" height="32" viewBox="0 0 118 32" fill="none" xmlns="http://www.w3.org/2000/svg">
    <path fill-rule="evenodd" clip-rule="evenodd" d="M16 0a6 6 0 0 0-6 6v20a6 6 0 0 0 12 0V6a6 6 0 0 0-6-6zm0 2.63a2 2 0 0 0-2 2v22.74a2 2 0 1 0 4 0V4.63a2 2 0 0 0-2-2z" fill="#6BF7D4"/>
    <path fill-rule="evenodd" clip-rule="evenodd" d="M32 16a6 6 0 0 0-6-6H6a6 6 0 0 0 0 12h20a6 6 0 0 0 6-6zm-2.63 0a2 2 0 0 0-2-2H4.63a2 2 0 1 0 0 4h22.74a2 2 0 0 0 2-2z" fill="#2EBA97"/>
    <path d="M10 14v-4h4v4h-4zM18 22v-4h4v4h-4z" fill="#403EA7"/>
    <path d="M52.378 23.749H47.08v-.817c.16-.098.327-.188.5-.272.173-.084.373-.16.6-.23v-4.231c0-1.2-.113-2.08-.34-2.639-.213-.572-.64-.858-1.28-.858a1.81 1.81 0 0 0-1.36.586c-.373.377-.64.817-.8 1.32v5.821c.214.056.4.119.56.189.174.07.354.174.54.314v.817H40.2v-.817c.413-.223.853-.391 1.32-.503V9.74L40 9.57v-.817c.2-.084.453-.168.76-.251.32-.084.653-.154 1-.21.346-.07.693-.125 1.04-.167.346-.056.653-.098.92-.126h.68v7.393h.02a3.64 3.64 0 0 1 .54-.9 3.96 3.96 0 0 1 1.7-1.278 2.978 2.978 0 0 1 1.059-.189c.533 0 1.006.07 1.42.21.426.125.78.356 1.06.69.28.336.493.79.64 1.362.146.558.22 1.27.22 2.136v5.005c.226.056.453.119.68.189.226.07.44.174.64.314v.817zM62.73 21.99c-.107.237-.28.481-.52.733a3.668 3.668 0 0 1-.86.649 4.93 4.93 0 0 1-1.18.44c-.44.125-.92.188-1.44.188-.826 0-1.56-.126-2.2-.377a4.356 4.356 0 0 1-1.6-1.11 5.089 5.089 0 0 1-.979-1.738c-.213-.67-.32-1.424-.32-2.262 0-1.787.447-3.148 1.34-4.084.893-.935 2.133-1.403 3.72-1.403.68 0 1.313.098 1.9.293.599.196 1.092.517 1.479.964.4.447.673 1.033.82 1.759.16.726.153 1.612-.02 2.66h-6.14c.014 1.102.28 1.982.8 2.638.534.657 1.314.985 2.34.985.44 0 .893-.07 1.36-.21.48-.14.853-.32 1.12-.544l.38.418zm-4.12-7.77a1.71 1.71 0 0 0-.72.146c-.2.098-.38.28-.54.545-.146.251-.266.6-.36 1.047-.093.433-.16.984-.2 1.655h3.22c.093-1.09.034-1.927-.18-2.513-.213-.587-.62-.88-1.22-.88zM73.55 20.712v.796c.014.223.034.46.06.712l1.38.21v.732c-.16.084-.38.168-.66.252a23.56 23.56 0 0 1-.86.25 9.76 9.76 0 0 1-.88.168c-.293.056-.553.098-.78.126h-.68a3.191 3.191 0 0 1-.24-.963 22.241 22.241 0 0 1-.06-1.173h-.1c-.066.28-.18.552-.339.817-.16.251-.367.481-.62.69-.24.196-.526.357-.86.482a3.154 3.154 0 0 1-1.12.189c-.44 0-.846-.07-1.22-.21a3.05 3.05 0 0 1-.98-.586c-.28-.251-.5-.551-.66-.9a2.98 2.98 0 0 1-.24-1.215c0-.628.114-1.145.34-1.55.227-.405.58-.733 1.06-.984.494-.265 1.12-.46 1.88-.586a26.092 26.092 0 0 1 2.8-.273c.107-1.2.06-2.08-.14-2.638-.2-.559-.633-.838-1.3-.838-.413 0-.793.07-1.14.21l-.94 2.512h-.88a6.81 6.81 0 0 1-.32-.565 34.885 34.885 0 0 1-.28-.691c-.08-.251-.153-.503-.22-.754a7.634 7.634 0 0 1-.12-.733c.507-.363 1.16-.65 1.96-.859.8-.21 1.647-.314 2.54-.314.76 0 1.38.09 1.86.272.48.168.853.405 1.12.713.28.293.473.642.58 1.047.106.405.16.837.16 1.298 0 .838-.02 1.599-.06 2.283-.027.67-.04 1.361-.04 2.073zm-4.499 1.613c.28 0 .52-.056.72-.168.2-.112.367-.244.5-.398a1.45 1.45 0 0 0 .32-.503c.08-.181.14-.341.18-.481V18.68c-.627.014-1.14.055-1.54.125-.4.07-.713.189-.94.356a1.24 1.24 0 0 0-.48.608c-.08.237-.12.53-.12.88 0 .53.12.942.36 1.235.24.293.573.44 1 .44zM81.822 23.749h-5.519v-.817c.44-.223.88-.391 1.32-.503V9.74l-1.52-.168v-.817c.173-.084.413-.168.72-.251a9.38 9.38 0 0 1 .98-.21c.36-.07.713-.125 1.06-.167.36-.056.68-.098.96-.126h.68v14.43c.44.111.88.279 1.32.502v.817zM82.883 13.78a5.139 5.139 0 0 1 1.6-.712v-1.696c.106-.084.366-.203.78-.356.426-.168.9-.3 1.42-.398h.68v2.66h2.639v1.319h-2.64v5.424c0 .866.1 1.466.3 1.801.213.335.56.503 1.04.503.24 0 .507-.014.8-.042.306-.042.586-.112.84-.21l.14.691c-.12.126-.3.259-.54.398-.227.14-.494.273-.8.398-.293.126-.62.23-.98.314a4.668 4.668 0 0 1-1.1.126c-.866 0-1.513-.237-1.94-.712-.426-.475-.64-1.243-.64-2.304v-6.387h-1.6v-.817zM103.668 23.749h-5.3v-.817c.16-.098.328-.188.5-.272.174-.084.374-.16.6-.23v-4.231c0-1.2-.113-2.08-.34-2.639-.213-.572-.64-.858-1.28-.858a1.81 1.81 0 0 0-1.359.586c-.373.377-.64.817-.8 1.32v5.821c.214.056.4.119.56.189.173.07.353.174.54.314v.817h-5.3v-.817c.414-.223.854-.391 1.32-.503V9.74l-1.52-.168v-.817c.2-.084.454-.168.76-.251.32-.084.654-.154 1-.21.347-.07.694-.125 1.04-.167.347-.056.654-.098.92-.126h.68v7.393h.02a3.64 3.64 0 0 1 .54-.9 3.96 3.96 0 0 1 1.7-1.278 2.978 2.978 0 0 1 1.06-.189c.533 0 1.006.07 1.42.21.426.125.779.356 1.059.69.28.336.494.79.64 1.362.147.558.22 1.27.22 2.136v5.005c.227.056.454.119.68.189.227.07.44.174.64.314v.817zM110.44 23.749h-5.519v-.817c.2-.112.407-.202.62-.272.213-.084.446-.16.7-.23v-7.666l-1.32-.167v-.817c.2-.084.447-.167.74-.251a9.66 9.66 0 0 1 .96-.21c.333-.07.66-.125.98-.167.319-.056.599-.098.839-.126h.68v9.403c.267.07.507.147.72.23.214.07.413.161.6.273v.817zm-4.539-13.906c0-.489.16-.873.48-1.152.32-.28.733-.419 1.24-.419.506 0 .919.14 1.239.42.32.278.48.662.48 1.15 0 .476-.16.853-.48 1.132-.32.28-.733.419-1.239.419-.507 0-.92-.14-1.24-.42-.32-.278-.48-.655-.48-1.13zM112.6 22.262c0-.503.154-.908.46-1.215.307-.307.714-.46 1.22-.46.507 0 .92.153 1.24.46.32.307.48.712.48 1.215 0 .502-.16.907-.48 1.214-.32.294-.733.44-1.24.44-.506 0-.913-.146-1.22-.44-.306-.307-.46-.712-.46-1.214z" fill="#313A55"/>
</svg>
