<svg width="264" height="264" viewBox="0 0 264 264" fill="none" xmlns="http://www.w3.org/2000/svg">
    <path d="M243.582 77.848s-14.663-34.214-45.055-47.789c-30.391-13.575-48.349-2.72-70.07 10.861-21.722 13.58-71.682 3.802-92.321 15.206-20.64 11.405-30.408 39.099-19.547 70.066 10.861 30.967 39.099 54.305 32.583 69.511-6.515 15.207 54.843 71.127 105.896 50.488 51.052-20.64 37.488-43.444 60.82-53.761 23.332-10.318 39.642-38.016 38.544-71.682-1.098-33.665-10.85-42.9-10.85-42.9z" fill="#97F9E1"/>
    <path opacity=".8" d="M243.582 77.848s-14.663-34.214-45.055-47.789c-30.391-13.575-48.349-2.72-70.07 10.861-21.722 13.58-71.682 3.802-92.321 15.206-20.64 11.405-30.408 39.099-19.547 70.066 10.861 30.967 39.099 54.305 32.583 69.511-6.515 15.207 54.843 71.127 105.896 50.488 51.052-20.64 37.488-43.444 60.82-53.761 23.332-10.318 39.642-38.016 38.544-71.682-1.098-33.665-10.85-42.9-10.85-42.9z" fill="#fff"/>
    <path d="M49.103 31.453a3.32 3.32 0 0 1 2.027 3.057v8.918a3.316 3.316 0 0 1-5.657 2.341 3.31 3.31 0 0 1-.97-2.34V34.51a3.326 3.326 0 0 1 2.023-3.057" stroke="#6F7588" stroke-linecap="round" stroke-linejoin="round"/>
    <path d="M47.805 46.739a3.31 3.31 0 0 1-3.31-3.31v-4.462h6.626v4.461a3.316 3.316 0 0 1-3.316 3.311zM40.681 30.186l-4.873 3.907a3.31 3.31 0 0 1-4.657-.528 3.32 3.32 0 0 1 .528-4.662l6.943-5.56a3.316 3.316 0 0 1 4.657.528 3.316 3.316 0 0 1-.512 4.641l-.56.449" stroke="#6F7588" stroke-linecap="round" stroke-linejoin="round"/>
    <path d="M31.151 33.586a3.32 3.32 0 0 1 .528-4.662l3.48-2.788 4.144 5.17-3.48 2.787a3.312 3.312 0 0 1-4.672-.507zM215.381 177.166a5.84 5.84 0 0 0-4.255 5.28h-7.239a2.702 2.702 0 1 0-.28 1.584h7.635a5.848 5.848 0 0 0 1.452 2.772 5.836 5.836 0 0 0 8.49.026l3.744 2.909M226.96 191.316l4.567 3.553a2.636 2.636 0 0 0-.185.961 2.711 2.711 0 0 0 5.123 1.266 2.72 2.72 0 0 0-.628-3.299 2.717 2.717 0 0 0-3.354-.163l-10.381-8.073a5.81 5.81 0 0 0-.343-6.041l6.336-8.126a2.694 2.694 0 0 0 3.184-4.04 2.695 2.695 0 0 0-4.911 1.532 2.64 2.64 0 0 0 .497 1.547l-6.183 7.92a5.808 5.808 0 0 0-3.754-1.367M136.103 33.026v24.816a3.948 3.948 0 0 1-2.435 3.644 3.94 3.94 0 0 1-4.298-.855 3.946 3.946 0 0 1-1.155-2.789v-31.86h7.888v5.582" stroke="#6F7588" stroke-linecap="round" stroke-linejoin="round"/>
    <path d="M132.159 61.776a3.945 3.945 0 0 1-3.944-3.944V37.657h7.888v20.175a3.932 3.932 0 0 1-1.154 2.79 3.93 3.93 0 0 1-2.79 1.154zM136.103 25.983h1.13v-2.872H127.09v2.872h1.124M116.26 48.671V25.967h7.888v31.85a3.943 3.943 0 0 1-6.733 2.788 3.943 3.943 0 0 1-1.155-2.789v-7.054" stroke="#6F7588" stroke-linecap="round" stroke-linejoin="round"/>
    <path d="M116.26 48.671V37.657h7.888v20.175a3.942 3.942 0 0 1-3.944 3.944 3.938 3.938 0 0 1-3.944-3.944v-6.447M124.149 25.983h1.125v-2.872h-10.143v2.872h1.13M50.92 177.129a9.667 9.667 0 0 0-6.178 6.864 9.641 9.641 0 0 0-19.008 2.212c0 2.371 1.03 4.477 2.503 6.405h10.375l3.1-7.414a.653.653 0 0 1 .623-.39.627.627 0 0 1 .575.448l3.754 12.382 2.862-9.14a.631.631 0 0 1 .597-.443.661.661 0 0 1 .612.428l1.584 4.572h8.57c1.642-1.932 2.872-4.097 2.872-6.864a9.647 9.647 0 0 0-9.647-9.647" stroke="#6F7588" stroke-linecap="round" stroke-linejoin="round"/>
    <path d="M39.831 204.152c1.653 1.652 3.311 3.305 5.006 4.905 3.87-3.823 7.767-7.625 11.616-11.479 1.056-1.056 2.217-2.112 3.29-3.231h-7.868a.637.637 0 0 1-.602-.428l-1.109-3.168-2.904 9.251a.633.633 0 0 1-.985.321.639.639 0 0 1-.229-.327l-3.833-12.672-2.582 6.188a.643.643 0 0 1-.586.396H29.27c2.113 2.35 4.72 4.425 6.68 6.363.86.85 1.721 1.711 2.576 2.571M243.064 49.384l-.644-1.125 3.189-1.816.639 1.125M246.318 55.076l-1.964-3.438v-.01l3.178-1.816h.005l3.749 6.568-3.189 1.816-.898-1.568M248.305 60.58l4.916-2.806-1.071-1.875-4.916 2.806 1.071 1.876zM245.593 40.978l-5.665-9.942M248.593 46.232l-2.032-3.559M234.648 40.091l-2.603-4.556M240.715 50.725l-5.143-9.013" stroke="#6F7588" stroke-linecap="round" stroke-linejoin="round"/>
    <path d="m242.004 52.975 2.35-1.336v-.01l3.178-1.817h.005l2.339-1.336M233.08 34.943l5.354 9.378 1.315-.75 3.189-1.822 1.304-.75-5.349-9.372" stroke="#6F7588" stroke-linecap="round" stroke-linejoin="round"/>
    <path d="m246.248 47.568-.639-1.125-2.671-4.694M239.748 43.57l2.672 4.69.644 1.124" stroke="#6F7588" stroke-linecap="round" stroke-linejoin="round"/>
    <path d="m244.352 51.628-2.349 1.346-.565.317-1.278-2.25.555-.316 2.349-1.341 3.184-1.816 2.344-1.336.565-.328 1.283 2.25-.565.322-2.339 1.336h-.005M234.352 28.253l-3.274 1.87 1.283 2.254M237.05 29.7l-1.288-2.254" stroke="#6F7588" stroke-linecap="round" stroke-linejoin="round"/>
    <path d="m233.081 34.943 5.813-3.316 1.035-.591.565-.317-1.288-2.25-2.155 1.231-4.688 2.677-2.16 1.23 1.283 2.25.56-.317 1.035-.597zM233.112 28.465l-6.21-10.877" stroke="#6F7588" stroke-linecap="round" stroke-linejoin="round"/>
    <path d="M153.026 181.494c26.285 0 47.593-21.309 47.593-47.594s-21.308-47.594-47.593-47.594c-26.286 0-47.594 21.309-47.594 47.594s21.308 47.594 47.594 47.594z" fill="#97F9E1"/>
    <path d="M127.649 87.3s-6.336-4.225-13.48-4.045c-7.144.18-9.826 7.513-10.207 9.63-.38 2.118.196 3.274-4.039 3.274-4.234 0-13.1-.771-16.563 3.854-3.464 4.626-3.855 9.821-.771 13.095 3.084 3.273 4.224 4.62 4.224 4.62s-3.274 3.083-1.732 7.318c1.542 4.234 7.128 6.162 10.787 6.162 3.66 0 9.24-5.201 10.782-8.28 1.542-3.078 5.972-2.111 9.435-6.932 3.464-4.821 1.737-10.787 1.157-14.061-.581-3.273.195-10.032 4.815-11.743 4.62-1.71 5.391-1.737 5.391-1.737l.201-1.156z" fill="#313A55" stroke="#313A55" stroke-linecap="round" stroke-linejoin="round"/>
    <path d="m73.92 181.087 13.865-24.842a61.18 61.18 0 0 1 2.693-12.519c2.313-7.318 5.01-19.066 8.284-23.11 3.274-4.045 14.256-7.704 14.256-7.704s10.592 4.625 13.48 6.743c2.888 2.117 7.704 5.776 9.24 9.05 1.537 3.273 2.894 11.167 5.396 14.055 2.503 2.888 8.089 8.67 7.894 14.061-.195 5.39-1.156 7.508-1.156 8.859 0 1.352-2.693-.285-7.699.291-5.005.575-8.569 2.223-8.976 2.798-.406.576-10.095 16.173-10.095 16.173" fill="#fff"/>
    <path d="m73.92 181.087 13.865-24.842a61.18 61.18 0 0 1 2.693-12.519c2.313-7.318 5.01-19.066 8.284-23.11 3.274-4.045 14.256-7.704 14.256-7.704s10.592 4.625 13.48 6.743c2.888 2.117 7.704 5.776 9.24 9.05 1.537 3.273 2.894 11.167 5.396 14.055 2.503 2.888 8.089 8.67 7.894 14.061-.195 5.39-1.156 7.508-1.156 8.859 0 1.352-2.693-.285-7.699.291-5.005.575-8.569 2.223-8.976 2.798-.406.576-10.095 16.173-10.095 16.173" stroke="#313A55" stroke-linecap="round" stroke-linejoin="round"/>
    <path d="M136.119 137.369s1.927 10.787 2.313 13.48c.385 2.693-5.006 13.675-6.336 14.831" stroke="#313A55" stroke-linecap="round" stroke-linejoin="round"/>
    <path d="M131.693 137.369s-.386 9.05.19 13.48c.575 4.43 1.732 10.032.771 11.748M137.855 153.737s3.274-2.693 7.509-1.536M139.588 151.43s2.503-1.542 4.815-1.542" stroke="#313A55" stroke-linecap="round" stroke-linejoin="round"/>
    <path d="m132.073 122.348 1.737 3.469 2.112 9.821-3.083-5.391-1.537 6.547-1.927-11.938s.776-4.045 2.698-2.508z" fill="#fff" stroke="#313A55" stroke-linecap="round" stroke-linejoin="round"/>
    <path d="M124.375 104.633s-2.312 2.112-4.044 2.889c-1.732.776-3.854 1.541-3.854 1.541l10.591 21.184 4.224 6.547s-.195-5.586-.195-7.514a26.49 26.49 0 0 0-.386-4.044l5.006-6.162s1.542-14.256.195-16.558c-1.346-2.302-9.034-.385-11.537 2.117z" fill="#fff" stroke="#313A55" stroke-linecap="round" stroke-linejoin="round"/>
    <path d="m136.208 113.71-3.696-3.306s-.834.792-1.425 5.924a11.734 11.734 0 0 0 1.431 6.68l3.168-3.934s.306-2.386.522-5.364z" fill="#313A55" stroke="#313A55" stroke-linecap="round" stroke-linejoin="round"/>
    <path d="M159.609 98.503s-1.367 6.632-2.534 8.775c-1.167 2.144-2.814 3.322-2.952 4.272-.396 3.289-.385 4.678-1.362 6.046-.977 1.367-6.436 4.683-9.752 5.459-3.316.776-5.28 1.368-6.246.391-.967-.977-4.483-6.046-4.483-8.19 0-2.143-.586-2.729 0-4.097.586-1.367.586-4.879.586-4.879s0-1.752 2.339-4.678c2.339-2.925 6.827-3.696 10.143-3.696 3.316 0 3.696-2.344 7.218-3.315 3.522-.972 6.066 1.959 7.043 3.912z" fill="#fff" stroke="#313A55" stroke-linecap="round" stroke-linejoin="round"/>
    <path d="M151.938 110.209c-.407.681-1.003 1.082-1.325.892-.322-.19-.254-.908.158-1.584.412-.676 1.003-1.082 1.325-.892.322.19.254.898-.158 1.584z" fill="#313A55"/>
    <path d="M151.014 106.455s2.465-1.019 3.743 1.277" stroke="#313A55" stroke-linecap="round" stroke-linejoin="round"/>
    <path d="M152.782 117.617c.492-.85.82-1.785.967-2.756-1.516-.829-4.853-2.783-6.627-4.853-2.339-2.729-7.017-9.361-7.017-9.361l-.765.977 3.901 6.436s-4.488 3.696-7.608 3.696c-2.429 0-2.967-.94-3.084-1.362a4.775 4.775 0 0 1-.232.776c-.586 1.368 0 1.948 0 4.097 0 2.149 3.511 7.218 4.483 8.19.971.971 2.93.39 6.246-.391 3.316-.782 8.76-4.082 9.736-5.449z" fill="#97F9E1" stroke="#313A55" stroke-linecap="round" stroke-linejoin="round"/>
    <path d="M138.542 103.181a9.961 9.961 0 0 1 5.655-1.362c3.315.195 7.217 1.558 8.194-.195.977-1.753 1.172-5.075 4.097-4.293 2.926.781 3.316 2.534 3.316 2.534s6.046-.195 6.632-3.51c.586-3.317-2.73-8.58-4.879-8.977-2.149-.396-4.097-.781-4.097-.781s-7.392-7.609-16.188-7.392c-8.797.216-12.672 3.696-14.821 11.12-2.149 7.423-1.173 10.142-2.931 12.671-1.758 2.53-2.73 5.075 1.584 4.684s7.218-3.121 9.362-4.098a6.338 6.338 0 0 1 4.076-.401z" fill="#313A55" stroke="#313A55" stroke-linecap="round" stroke-linejoin="round"/>
    <path d="M139.128 104.549s2.339-2.925.195-6.046c-2.143-3.12-8.39 2.925-7.392 6.241.998 3.316 3.512 2.925 3.512 2.925" fill="#fff"/>
    <path d="M139.128 104.549s2.339-2.925.195-6.046c-2.143-3.12-8.39 2.925-7.392 6.241.998 3.316 3.512 2.925 3.512 2.925" stroke="#313A55" stroke-linecap="round" stroke-linejoin="round"/>
    <path d="m118.018 106.561 11.748 23.876-4.045 6.547-14.25-24.647 6.547-5.776zM132.275 166.621s-.269-4.61 5.608-5.069c5.876-.46 10.433 2.07 10.681 5.966.248 3.897-11.753 1.384-13.089 1.384-1.336 0-3.2-2.281-3.2-2.281z" fill="#fff" stroke="#313A55" stroke-linecap="round" stroke-linejoin="round"/>
    <path d="M197.936 179.002H119.75v4.393h77.996" fill="#fff"/>
    <path d="M197.936 179.002H119.75v4.393h77.996" stroke="#313A55" stroke-linecap="round" stroke-linejoin="round"/>
    <path d="m170.205 132.174-20.412 8.469v31.585h7.704V142.57l14.25-7.893-1.542-2.503z" fill="#fff" stroke="#313A55" stroke-linecap="round" stroke-linejoin="round"/>
    <path d="M180.845 162.238a.8.8 0 0 1-.462-.723.795.795 0 0 1 .462-.723.794.794 0 0 0-.792-.792h-6.79a3.387 3.387 0 0 1-.792 2.238.797.797 0 0 0 .464.724.786.786 0 0 0-.339.289.787.787 0 0 0-.125.429.796.796 0 0 1 0 1.446.797.797 0 0 0 .464.724.782.782 0 0 0-.464.718.799.799 0 0 0 .058.305.8.8 0 0 0 .734.492h6.79a.793.793 0 0 0 .327-1.515 2.059 2.059 0 0 1 .465-2.17.78.78 0 0 0-.465-.718.797.797 0 0 0 .465-.724z" fill="#313A55" stroke="#313A55" stroke-linecap="round" stroke-linejoin="round"/>
    <path d="M187.059 167.222H149.65v7.656h37.409v-7.656z" fill="#fff" stroke="#313A55" stroke-linecap="round" stroke-linejoin="round"/>
    <path d="M187.059 170.829H149.65v4.044h37.409v-4.044z" fill="#313A55" stroke="#313A55" stroke-linecap="round" stroke-linejoin="round"/>
    <path d="M156.583 174.73h-4.478v4.187h4.478v-4.187zM170.159 174.73h-4.477v4.187h4.477v-4.187zM183.733 174.73h-4.477v4.187h4.477v-4.187z" fill="#313A55" stroke="#313A55" stroke-linecap="round" stroke-linejoin="round"/>
    <path d="M187.782 152.486h-33.221v1.732h33.221v-1.732z" fill="#fff" stroke="#313A55" stroke-linecap="round" stroke-linejoin="round"/>
    <path d="M185.903 154.075h-28.454v2.598h28.454v-2.598zM156.19 109.751l-3.122 3.407 19.593 17.953 3.121-3.406-19.592-17.954zM175.618 137.237h-3.659v9.436h3.659v-9.436zM175.222 146.805h-2.841v1.578h2.841v-1.578zM178.988 134.359l-3.349 1.474 3.798 8.636 3.35-1.473-3.799-8.637zM182.471 143.277l-2.6 1.143.636 1.446 2.6-1.144-.636-1.445z" fill="#313A55" stroke="#313A55" stroke-linecap="round" stroke-linejoin="round"/>
    <path d="m172.903 124.66-3.854 3.855v10.977l12.329-3.084v-7.318l-8.475-4.43z" fill="#fff" stroke="#313A55" stroke-linecap="round" stroke-linejoin="round"/>
    <path d="m181.378 133.546-12.329 3.184v2.762l12.329-3.084v-2.862z" fill="#313A55" stroke="#313A55" stroke-linecap="round" stroke-linejoin="round"/>
    <path d="M148.252 164.524s5.776-3.854 6.933-5.201c1.156-1.346 5.391-6.737 6.547-6.932 1.156-.196 5.201-.19 5.972-.19.77 0 3.273 2.307 3.849 2.693.575.385.771 2.112.195 2.312-.575.201-3.659-1.346-3.659-1.346l-5.201.961s7.894 1.927 8.448 2.312c.555.386.386 2.308.386 2.308l-2.287 1.156s2.313-.19 2.313 1.156c0 1.347 0 2.698-.966 2.698h-.961s2.112 2.112 1.542 2.693a3.655 3.655 0 0 1-2.503.966c-.966 0-3.274 1.152-5.972 2.112-2.698.961-6.737 2.693-8.86 3.079-2.122.385-5.195.771-5.195.771s-.196-5.006-.581-6.548c-.385-1.541-1.156-4.43-1.156-4.43l1.156-.57z" fill="#fff" stroke="#313A55" stroke-linecap="round" stroke-linejoin="round"/>
    <path d="m169.434 162.597-4.086.739M169.821 166.452l-4.034.823" stroke="#313A55" stroke-linecap="round" stroke-linejoin="round"/>
    <path d="M101.069 124.855c-2.503 3.85-5.39 12.709-5.39 17.139s-3.66 21.374-4.045 27.536c-.386 6.161-.19 10.032 3.659 10.787 3.849.755 15.982 1.731 21.378 1.151 5.397-.581 11.579-.576 20.027-.576s12.519-.575 12.519-.575a72.964 72.964 0 0 0 1.151-8.285c.196-3.463-1.151-8.664-1.731-8.664-.581 0-9.821 1.542-17.715 2.502-7.893.961-11.748-.385-13.094-.96a5.773 5.773 0 0 0-1.927-.581v-2.503l-2.313-.19 2.112-13.48s1.737-1.156 2.313-2.503c.575-1.346 1.346-8.284.96-12.518-.385-4.235-4.429-6.743-4.429-6.743" fill="#fff"/>
    <path d="M101.069 124.855c-2.503 3.85-5.39 12.709-5.39 17.139s-3.66 21.374-4.045 27.536c-.386 6.161-.19 10.032 3.659 10.787 3.849.755 15.982 1.731 21.378 1.151 5.397-.581 11.579-.576 20.027-.576s12.519-.575 12.519-.575a72.964 72.964 0 0 0 1.151-8.285c.196-3.463-1.151-8.664-1.731-8.664-.581 0-9.821 1.542-17.715 2.503-7.893.96-11.748-.386-13.094-.961a5.773 5.773 0 0 0-1.927-.581v-2.503l-2.313-.19 2.112-13.48s1.737-1.156 2.313-2.503c.575-1.346 1.346-8.284.96-12.518-.385-4.235-4.429-6.743-4.429-6.743" stroke="#313A55" stroke-linecap="round" stroke-linejoin="round"/>
    <path d="M113.203 163.178s-1.542 2.693-7.318 5.005M113.783 165.295s-8.67 6.547-10.592 9.05M96.043 167.798s7.318-.195 12.519-3.469M114.746 147.385s-1.732-2.698-6.162-5.2" stroke="#313A55" stroke-linecap="round" stroke-linejoin="round"/>
</svg>
